<mxfile host="Electron" modified="2024-01-13T15:28:04.760Z" agent="Mozilla/5.0 (Windows NT 10.0; Win64; x64) AppleWebKit/537.36 (KHTML, like Gecko) draw.io/22.1.18 Chrome/120.0.6099.199 Electron/28.1.2 Safari/537.36" etag="9pFSgNvw-_6gZd3V3ynO" version="22.1.18" type="device">
  <diagram name="Page-1" id="e7e014a7-5840-1c2e-5031-d8a46d1fe8dd">
    <mxGraphModel dx="2074" dy="1196" grid="1" gridSize="10" guides="1" tooltips="1" connect="1" arrows="1" fold="1" page="1" pageScale="1" pageWidth="700" pageHeight="850" background="none" math="0" shadow="0">
      <root>
        <mxCell id="0" />
        <mxCell id="1" parent="0" />
        <mxCell id="2" value="Client" style="swimlane;whiteSpace=wrap" parent="1" vertex="1">
          <mxGeometry x="90" y="82" width="280" height="672" as="geometry" />
        </mxCell>
        <mxCell id="5" value="" style="ellipse;shape=startState;fillColor=#000000;strokeColor=#ff0000;" parent="2" vertex="1">
          <mxGeometry x="119.5" y="40" width="30" height="30" as="geometry" />
        </mxCell>
        <mxCell id="6" value="" style="edgeStyle=elbowEdgeStyle;elbow=horizontal;verticalAlign=bottom;endArrow=open;endSize=8;strokeColor=#FF0000;endFill=1;rounded=0" parent="2" source="QrWzn1zdB8zRgJfygUBg-49" target="7" edge="1">
          <mxGeometry x="100" y="40" as="geometry">
            <mxPoint x="134.5" y="110" as="targetPoint" />
          </mxGeometry>
        </mxCell>
        <mxCell id="7" value="Send register info to server" style="" parent="2" vertex="1">
          <mxGeometry x="49.5" y="182" width="170" height="50" as="geometry" />
        </mxCell>
        <mxCell id="QrWzn1zdB8zRgJfygUBg-51" style="edgeStyle=orthogonalEdgeStyle;rounded=0;orthogonalLoop=1;jettySize=auto;html=1;entryX=0;entryY=0.5;entryDx=0;entryDy=0;strokeColor=#ff3838;" edge="1" parent="2" source="8" target="QrWzn1zdB8zRgJfygUBg-49">
          <mxGeometry relative="1" as="geometry">
            <Array as="points">
              <mxPoint x="35.5" y="285" />
              <mxPoint x="35.5" y="127" />
            </Array>
          </mxGeometry>
        </mxCell>
        <mxCell id="8" value="Notify user ofÂ &#xa;invalid Data" style="" parent="2" vertex="1">
          <mxGeometry x="49.5" y="260" width="110" height="50" as="geometry" />
        </mxCell>
        <mxCell id="QrWzn1zdB8zRgJfygUBg-46" value="" style="ellipse;html=1;shape=endState;fillColor=#000000;strokeColor=#ff0000;" vertex="1" parent="2">
          <mxGeometry x="119.5" y="612" width="30" height="30" as="geometry" />
        </mxCell>
        <mxCell id="QrWzn1zdB8zRgJfygUBg-50" value="" style="edgeStyle=elbowEdgeStyle;elbow=horizontal;verticalAlign=bottom;endArrow=open;endSize=8;strokeColor=#FF0000;endFill=1;rounded=0" edge="1" parent="2" source="5" target="QrWzn1zdB8zRgJfygUBg-49">
          <mxGeometry x="100" y="40" as="geometry">
            <mxPoint x="299" y="310" as="targetPoint" />
            <mxPoint x="299" y="198" as="sourcePoint" />
          </mxGeometry>
        </mxCell>
        <mxCell id="QrWzn1zdB8zRgJfygUBg-49" value="Ask For User Data" style="" vertex="1" parent="2">
          <mxGeometry x="79.5" y="102" width="110" height="50" as="geometry" />
        </mxCell>
        <mxCell id="QrWzn1zdB8zRgJfygUBg-56" style="edgeStyle=orthogonalEdgeStyle;rounded=0;orthogonalLoop=1;jettySize=auto;html=1;entryX=0.5;entryY=0;entryDx=0;entryDy=0;strokeColor=#FF3333;" edge="1" parent="2" source="QrWzn1zdB8zRgJfygUBg-53" target="QrWzn1zdB8zRgJfygUBg-55">
          <mxGeometry relative="1" as="geometry" />
        </mxCell>
        <mxCell id="QrWzn1zdB8zRgJfygUBg-53" value="Generate Public/Private&#xa;Keys" style="" vertex="1" parent="2">
          <mxGeometry x="59.5" y="352" width="150" height="50" as="geometry" />
        </mxCell>
        <mxCell id="QrWzn1zdB8zRgJfygUBg-55" value="Send Public key to server" style="" vertex="1" parent="2">
          <mxGeometry x="59.5" y="442" width="150" height="50" as="geometry" />
        </mxCell>
        <mxCell id="QrWzn1zdB8zRgJfygUBg-64" style="edgeStyle=orthogonalEdgeStyle;rounded=0;orthogonalLoop=1;jettySize=auto;html=1;entryX=0.5;entryY=0;entryDx=0;entryDy=0;strokeColor=#FF3333;" edge="1" parent="2" source="QrWzn1zdB8zRgJfygUBg-61" target="QrWzn1zdB8zRgJfygUBg-46">
          <mxGeometry relative="1" as="geometry" />
        </mxCell>
        <mxCell id="QrWzn1zdB8zRgJfygUBg-61" value="Notfiy client of&#xa;success" style="" vertex="1" parent="2">
          <mxGeometry x="74.5" y="522" width="120" height="50" as="geometry" />
        </mxCell>
        <mxCell id="3" value="Server" style="swimlane;whiteSpace=wrap" parent="1" vertex="1">
          <mxGeometry x="370" y="82" width="235.5" height="672" as="geometry" />
        </mxCell>
        <mxCell id="15" value="Validate Register &#xa;Info" style="" parent="3" vertex="1">
          <mxGeometry x="62.75" y="60" width="110" height="50" as="geometry" />
        </mxCell>
        <mxCell id="16" value="Encrypt Password&#xa;Store it in Db" style="" parent="3" vertex="1">
          <mxGeometry x="62.75" y="252" width="110" height="50" as="geometry" />
        </mxCell>
        <mxCell id="17" value="" style="endArrow=open;strokeColor=#FF0000;endFill=1;rounded=0" parent="3" source="QrWzn1zdB8zRgJfygUBg-42" target="16" edge="1">
          <mxGeometry relative="1" as="geometry" />
        </mxCell>
        <mxCell id="QrWzn1zdB8zRgJfygUBg-48" value="No" style="edgeLabel;html=1;align=center;verticalAlign=middle;resizable=0;points=[];" vertex="1" connectable="0" parent="17">
          <mxGeometry x="-0.6727" y="1" relative="1" as="geometry">
            <mxPoint x="10" y="-3" as="offset" />
          </mxGeometry>
        </mxCell>
        <mxCell id="18" value="Ask for public key&#xa;from user" style="" parent="3" vertex="1">
          <mxGeometry x="62.75" y="352" width="110" height="50" as="geometry" />
        </mxCell>
        <mxCell id="19" value="" style="endArrow=open;strokeColor=#FF0000;endFill=1;rounded=0" parent="3" source="16" target="18" edge="1">
          <mxGeometry relative="1" as="geometry" />
        </mxCell>
        <mxCell id="QrWzn1zdB8zRgJfygUBg-43" value="" style="endArrow=open;strokeColor=#FF0000;endFill=1;rounded=0" edge="1" parent="3" source="15" target="QrWzn1zdB8zRgJfygUBg-42">
          <mxGeometry relative="1" as="geometry">
            <mxPoint x="562.25" y="238" as="sourcePoint" />
            <mxPoint x="562.25" y="440" as="targetPoint" />
          </mxGeometry>
        </mxCell>
        <mxCell id="QrWzn1zdB8zRgJfygUBg-42" value="Invalid Data" style="rhombus;fillColor=#0050ef;strokeColor=#001DBC;fontColor=#ffffff;" vertex="1" parent="3">
          <mxGeometry x="77.75" y="130" width="80" height="72" as="geometry" />
        </mxCell>
        <mxCell id="QrWzn1zdB8zRgJfygUBg-63" style="edgeStyle=orthogonalEdgeStyle;rounded=0;orthogonalLoop=1;jettySize=auto;html=1;entryX=0.5;entryY=0;entryDx=0;entryDy=0;strokeColor=#FF3333;" edge="1" parent="3" source="QrWzn1zdB8zRgJfygUBg-57" target="QrWzn1zdB8zRgJfygUBg-60">
          <mxGeometry relative="1" as="geometry" />
        </mxCell>
        <mxCell id="QrWzn1zdB8zRgJfygUBg-57" value="Store Client public&#xa;key in Db" style="" vertex="1" parent="3">
          <mxGeometry x="57.75" y="442" width="120" height="50" as="geometry" />
        </mxCell>
        <mxCell id="QrWzn1zdB8zRgJfygUBg-60" value="Notfiy client of&#xa;success" style="" vertex="1" parent="3">
          <mxGeometry x="57.75" y="522" width="120" height="50" as="geometry" />
        </mxCell>
        <mxCell id="QrWzn1zdB8zRgJfygUBg-41" value="Registeration Process Activity Diagram" style="text;html=1;align=center;verticalAlign=middle;resizable=0;points=[];autosize=1;strokeColor=none;fillColor=none;fontStyle=1;fontSize=18;" vertex="1" parent="1">
          <mxGeometry x="90" y="42" width="360" height="40" as="geometry" />
        </mxCell>
        <mxCell id="QrWzn1zdB8zRgJfygUBg-44" style="edgeStyle=orthogonalEdgeStyle;rounded=0;orthogonalLoop=1;jettySize=auto;html=1;exitX=0;exitY=0.5;exitDx=0;exitDy=0;entryX=1;entryY=0.5;entryDx=0;entryDy=0;fillColor=#d80073;strokeColor=#FF3333;" edge="1" parent="1" source="QrWzn1zdB8zRgJfygUBg-42" target="8">
          <mxGeometry relative="1" as="geometry">
            <Array as="points">
              <mxPoint x="345.5" y="248" />
              <mxPoint x="345.5" y="367" />
            </Array>
          </mxGeometry>
        </mxCell>
        <mxCell id="QrWzn1zdB8zRgJfygUBg-47" value="Yes" style="edgeLabel;html=1;align=center;verticalAlign=middle;resizable=0;points=[];" vertex="1" connectable="0" parent="QrWzn1zdB8zRgJfygUBg-44">
          <mxGeometry x="-0.7655" y="-3" relative="1" as="geometry">
            <mxPoint x="17" y="-11" as="offset" />
          </mxGeometry>
        </mxCell>
        <mxCell id="QrWzn1zdB8zRgJfygUBg-52" style="edgeStyle=orthogonalEdgeStyle;rounded=0;orthogonalLoop=1;jettySize=auto;html=1;entryX=0;entryY=0.5;entryDx=0;entryDy=0;strokeColor=#FF3333;" edge="1" parent="1" source="7" target="15">
          <mxGeometry relative="1" as="geometry">
            <Array as="points">
              <mxPoint x="325.5" y="289" />
              <mxPoint x="325.5" y="167" />
            </Array>
          </mxGeometry>
        </mxCell>
        <mxCell id="QrWzn1zdB8zRgJfygUBg-54" style="edgeStyle=orthogonalEdgeStyle;rounded=0;orthogonalLoop=1;jettySize=auto;html=1;entryX=1;entryY=0.5;entryDx=0;entryDy=0;strokeColor=#FF3333;" edge="1" parent="1" source="18" target="QrWzn1zdB8zRgJfygUBg-53">
          <mxGeometry relative="1" as="geometry" />
        </mxCell>
        <mxCell id="QrWzn1zdB8zRgJfygUBg-58" style="edgeStyle=orthogonalEdgeStyle;rounded=0;orthogonalLoop=1;jettySize=auto;html=1;entryX=0;entryY=0.5;entryDx=0;entryDy=0;strokeColor=#FF3333;" edge="1" parent="1" source="QrWzn1zdB8zRgJfygUBg-55" target="QrWzn1zdB8zRgJfygUBg-57">
          <mxGeometry relative="1" as="geometry" />
        </mxCell>
        <mxCell id="QrWzn1zdB8zRgJfygUBg-62" style="edgeStyle=orthogonalEdgeStyle;rounded=0;orthogonalLoop=1;jettySize=auto;html=1;entryX=1;entryY=0.5;entryDx=0;entryDy=0;strokeColor=#FF3333;" edge="1" parent="1" source="QrWzn1zdB8zRgJfygUBg-60" target="QrWzn1zdB8zRgJfygUBg-61">
          <mxGeometry relative="1" as="geometry" />
        </mxCell>
      </root>
    </mxGraphModel>
  </diagram>
</mxfile>
